<svg xmlns="http://www.w3.org/2000/svg" viewBox="0 0 120 120">
  <rect width="120" height="120" rx="26" fill="#06c755"/>
  <path fill="#fff" d="M100.7 53.8c0-18.1-18.2-32.9-40.5-32.9S19.6 35.7 19.6 53.8c0 16.3 14.4 29.9 33.9 32.5 1.3.3 3.1.9 3.6 2 .4 1 .3 2.6.1 3.6 0 0-.5 2.9-.6 3.5-.2 1-.8 3.9 3.4 2.1s22.7-13.4 31-22.9c5.7-6.3 8.7-12.7 8.7-20.8z"/>
  <path fill="#06c755" d="M51.9 45.4h-3.3c-.5 0-.9.4-.9.9v20.5c0 .5.4.9.9.9h3.3c.5 0 .9-.4.9-.9V46.3c0-.5-.4-.9-.9-.9zm20.2 0h-3.3c-.5 0-.9.4-.9.9v12.2l-9.4-12.7c-.1-.1-.1-.2-.2-.2h-.1-.1-3.6c-.5 0-.9.4-.9.9v20.5c0 .5.4.9.9.9h3.3c.5 0 .9-.4.9-.9V54.8l9.4 12.7c.1.1.2.2.3.3h3.7c.5 0 .9-.4.9-.9V46.3c0-.5-.4-.9-.9-.9zm-27.7 17.3h-8.8V46.3c0-.5-.4-.9-.9-.9h-3.3c-.5 0-.9.4-.9.9v20.5c0 .2.1.5.3.6.2.2.4.3.6.3h13c.5 0 .9-.4.9-.9v-3.3c0-.4-.4-.8-.9-.8zm42.9-13.2c.5 0 .9-.4.9-.9v-3.3c0-.5-.4-.9-.9-.9h-13c-.5 0-.9.4-.9.9v20.5c0 .5.4.9.9.9h13c.5 0 .9-.4.9-.9v-3.3c0-.5-.4-.9-.9-.9h-8.8v-3.9h8.8c.5 0 .9-.4.9-.9v-3.3c0-.5-.4-.9-.9-.9h-8.8v-3.9h8.8z"/>
</svg>